<?xml version="1.0" standalone="no"?>
<!DOCTYPE svg PUBLIC "-//W3C//DTD SVG 20010904//EN"
 "http://www.w3.org/TR/2001/REC-SVG-20010904/DTD/svg10.dtd">
<svg version="1.0" xmlns="http://www.w3.org/2000/svg"
 width="1250.000000pt" height="1250.000000pt" viewBox="0 0 1250.000000 1250.000000"
 preserveAspectRatio="xMidYMid meet">
<metadata>
Created by potrace 1.11, written by Peter Selinger 2001-2013
</metadata>
<g transform="translate(0.000000,1250.000000) scale(0.100000,-0.100000)"
fill="#000000" stroke="none">
<path d="M6077 11794 c-1 -1 -69 -5 -152 -8 -82 -4 -170 -9 -195 -11 -25 -3
-69 -7 -97 -9 -130 -13 -393 -50 -425 -61 -7 -2 -31 -7 -53 -10 -46 -6 -323
-70 -375 -86 -19 -5 -45 -12 -57 -15 -12 -2 -78 -22 -147 -43 -463 -145 -883
-338 -1289 -595 -205 -129 -218 -138 -397 -274 -361 -275 -674 -582 -963 -946
-49 -61 -94 -118 -100 -126 -61 -76 -239 -344 -342 -515 -50 -82 -249 -472
-297 -581 -94 -211 -202 -511 -264 -734 -19 -69 -40 -139 -46 -157 -10 -27 -8
-45 9 -105 12 -40 33 -116 46 -168 117 -450 325 -922 579 -1313 15 -23 31 -49
35 -57 4 -8 33 -51 65 -95 31 -44 70 -97 85 -119 100 -139 338 -420 459 -540
85 -85 240 -230 279 -261 28 -22 52 -42 55 -45 10 -11 138 -116 165 -135 15
-11 60 -44 99 -73 277 -210 770 -481 1046 -575 25 -9 76 -27 115 -41 76 -28
104 -34 65 -12 -200 107 -606 367 -797 510 l-81 61 -26 120 c-14 66 -28 136
-31 155 -3 19 -8 42 -10 50 -2 8 -6 33 -10 55 -3 22 -12 81 -20 130 -41 268
-59 501 -59 785 0 163 9 397 18 470 2 14 7 57 10 95 4 39 9 84 11 100 3 17 7
48 10 70 3 22 10 65 15 95 5 30 12 71 14 90 8 58 36 199 62 308 13 56 26 113
29 125 14 66 63 239 109 383 115 362 266 707 480 1093 l79 143 31 -34 c144
-163 294 -337 349 -408 37 -47 76 -94 86 -105 10 -11 75 -96 145 -190 71 -93
133 -177 140 -185 6 -8 48 -67 92 -130 706 -1007 1265 -2165 1635 -3388 28
-92 52 -175 54 -184 2 -9 13 -51 25 -93 12 -42 23 -84 25 -93 2 -9 12 -51 23
-92 31 -115 96 -412 108 -495 9 -56 20 -82 36 -82 18 -1 173 -14 228 -19 56
-6 374 -5 455 0 81 6 196 17 220 22 11 2 38 6 60 9 22 3 50 7 61 9 12 2 38 7
57 10 109 17 391 94 462 126 11 5 43 18 70 29 92 35 227 103 334 166 298 177
529 402 688 670 6 11 29 49 51 85 136 225 307 555 437 845 130 291 310 789
399 1105 40 143 93 343 100 380 3 14 21 95 40 180 19 85 37 166 39 180 3 14 8
43 12 65 12 65 14 77 25 135 5 30 11 69 14 85 2 17 11 73 20 125 8 52 18 120
21 150 4 30 8 66 10 80 2 14 6 51 9 83 3 31 8 81 11 110 3 28 8 72 10 97 3 25
8 111 11 191 l6 145 -60 61 c-151 153 -374 262 -657 322 -197 42 -295 50 -560
45 -137 -2 -270 -6 -295 -9 -25 -2 -90 -7 -145 -10 -55 -3 -111 -8 -125 -10
-14 -2 -56 -6 -93 -10 -37 -3 -76 -8 -85 -9 -9 -2 -39 -7 -65 -10 -27 -4 -59
-9 -70 -12 -12 -2 -38 -7 -57 -10 -65 -11 -195 -55 -232 -80 -62 -40 -63 -52
-13 -126 151 -226 235 -485 272 -839 14 -142 7 -556 -12 -689 -2 -14 -6 -45
-9 -70 -15 -122 -20 -155 -42 -279 -20 -111 -56 -272 -81 -366 -3 -11 -7 -32
-10 -48 -3 -15 -8 -29 -12 -31 -4 -3 -27 41 -51 97 -249 580 -662 1227 -1119
1752 -73 85 -170 196 -206 235 -67 76 -555 561 -645 641 -148 132 -310 272
-394 339 -10 8 -23 20 -30 25 -6 6 -42 35 -81 65 -38 30 -75 59 -81 65 -7 5
-24 19 -39 30 -42 30 -209 154 -220 163 -73 57 -61 55 -285 53 -114 -1 -265
-3 -334 -4 -69 -1 -126 -1 -126 0 0 6 108 120 235 247 117 118 224 216 417
382 142 122 568 419 724 504 21 12 53 29 69 39 95 56 435 231 449 231 2 0 37
15 78 34 237 110 653 251 828 282 14 3 39 9 55 14 24 7 150 33 269 56 55 10
69 14 73 17 4 4 -250 70 -312 81 -16 3 -41 8 -55 11 -50 11 -366 63 -415 69
-27 3 -81 8 -120 11 -38 4 -83 8 -100 10 -63 8 -532 24 -538 19z"/>
<path d="M780 7140 c-22 -249 -19 -996 5 -1275 13 -147 16 -183 20 -210 2 -16
7 -57 10 -90 3 -33 8 -71 10 -85 2 -14 7 -43 10 -65 3 -22 15 -96 26 -165 12
-69 23 -138 25 -154 2 -16 8 -45 14 -65 5 -20 11 -50 14 -66 24 -137 126 -490
197 -683 135 -363 299 -664 571 -1047 15 -22 36 -51 46 -64 116 -164 367 -481
472 -596 165 -180 314 -333 385 -395 25 -22 43 -40 40 -40 -10 0 -290 194
-355 246 -142 115 -203 165 -239 198 -88 81 -197 192 -235 241 -55 69 -62 75
-40 37 53 -93 264 -323 414 -452 110 -95 194 -165 235 -195 22 -17 42 -32 45
-35 37 -39 415 -299 580 -400 58 -35 126 -79 152 -97 26 -18 52 -33 56 -33 5
0 17 -9 27 -20 10 -11 24 -20 31 -20 7 0 14 -4 16 -8 4 -10 218 -145 311 -195
37 -21 84 -47 105 -59 149 -83 539 -261 622 -283 3 -1 19 -7 35 -14 137 -59
584 -192 755 -225 14 -2 68 -13 120 -24 52 -11 115 -23 140 -26 25 -3 71 -11
103 -17 62 -11 93 -15 193 -24 33 -3 71 -8 85 -10 56 -11 282 -20 529 -19 310
0 434 7 675 39 17 2 53 7 80 10 180 21 557 103 770 168 39 11 72 21 75 22 3 1
55 18 115 38 97 32 168 58 345 127 86 33 316 139 441 204 309 158 612 353 874
560 333 264 694 626 916 918 35 46 71 92 81 102 10 11 18 23 18 26 0 4 9 18
21 31 23 26 242 354 253 379 3 8 15 29 26 45 11 17 23 36 26 43 4 7 32 59 63
115 52 94 201 391 201 402 0 2 11 28 24 57 58 128 150 372 197 528 22 70 59
196 65 220 2 8 11 42 20 75 9 33 17 67 19 75 2 8 15 67 28 130 14 63 28 131
31 150 3 19 8 49 11 65 3 17 8 46 11 65 3 19 8 49 10 65 2 17 6 41 9 55 2 14
7 50 10 80 3 30 7 71 10 90 19 155 28 335 28 580 0 182 -9 421 -17 466 -2 10
-7 55 -10 99 -4 44 -9 91 -11 105 -2 14 -6 45 -10 70 -4 25 -8 56 -10 70 -22
161 -24 165 -46 94 -11 -32 -21 -68 -23 -79 -12 -57 -142 -441 -182 -537 -97
-231 -262 -554 -391 -763 -52 -85 -200 -309 -220 -335 -7 -8 -47 -62 -90 -120
-43 -58 -80 -107 -83 -110 -3 -3 -35 -41 -70 -85 -36 -44 -69 -85 -75 -91 -5
-6 -39 -44 -75 -85 -118 -134 -353 -364 -450 -440 -312 -244 -676 -472 -1025
-643 -147 -72 -263 -126 -270 -126 -3 0 -24 -9 -48 -19 -56 -26 -155 -67 -208
-86 -112 -41 -436 -147 -506 -165 -111 -30 -268 -69 -305 -75 -17 -3 -34 -8
-37 -10 -4 -2 -25 -6 -47 -9 -22 -4 -49 -8 -59 -10 -11 -2 -40 -7 -65 -11 -25
-4 -53 -9 -64 -11 -10 -2 -44 -6 -75 -10 -31 -3 -64 -8 -73 -9 -9 -2 -48 -7
-85 -10 -37 -4 -75 -8 -83 -10 -8 -2 -44 -6 -80 -10 -36 -3 -85 -8 -110 -10
-209 -22 -307 -28 -475 -27 -89 0 -367 11 -420 17 -22 2 -69 7 -105 10 -36 3
-81 8 -100 10 -19 3 -55 7 -80 10 -25 3 -56 7 -70 10 -14 2 -43 7 -65 10 -23
3 -50 7 -62 9 -11 3 -36 7 -54 10 -674 109 -1445 407 -2078 804 -58 36 -110
70 -116 74 -5 4 -66 47 -135 95 -453 314 -897 735 -1249 1183 -45 58 -90 114
-99 125 -60 74 -322 460 -366 540 -9 17 -25 44 -35 60 -65 106 -173 304 -252
461 -51 101 -94 182 -96 181 -2 -3 10 -92 23 -162 l5 -30 -13 25 c-24 42 -118
248 -179 390 -33 74 -59 133 -59 130z"/>
</g>
</svg>
